<?xml version="1.0" encoding="UTF-8"?>
<svg version="1.1" xmlns="http://www.w3.org/2000/svg" width="768" height="644">
<path d="M0 0 C1.04765783 -0.00384115 2.09531567 -0.00768229 3.1747207 -0.01163983 C4.32973111 -0.01077335 5.48474151 -0.00990687 6.67475224 -0.00901413 C7.89895958 -0.01198525 9.12316693 -0.01495637 10.38447148 -0.01801753 C13.78973014 -0.02520683 17.19493836 -0.02787758 20.60020101 -0.028615 C24.27148052 -0.03046457 27.94274907 -0.03801228 31.61402225 -0.04475021 C39.65265685 -0.05834819 47.69128646 -0.06436287 55.72993064 -0.06876087 C60.75964542 -0.07152548 65.78935828 -0.07576368 70.81907177 -0.08026505 C84.76840532 -0.09246841 98.71773734 -0.10275989 112.66707611 -0.10614014 C113.56058083 -0.1063597 114.45408554 -0.10657927 115.37466616 -0.10680549 C116.27025319 -0.10702377 117.16584021 -0.10724204 118.08856624 -0.10746694 C119.90318867 -0.10791039 121.71781109 -0.10835695 123.53243351 -0.10880661 C124.4325392 -0.10902804 125.3326449 -0.10924947 126.26002652 -0.10947761 C140.78416136 -0.11340975 155.30824552 -0.1308102 169.83236086 -0.15416613 C184.77587701 -0.17800006 199.71936793 -0.19034772 214.66290337 -0.19150805 C223.03965765 -0.19241904 231.41634625 -0.19802243 239.79308224 -0.21632767 C246.94124758 -0.23189318 254.08932703 -0.23675466 261.23750614 -0.22858956 C264.87236379 -0.22473781 268.50704943 -0.22533557 272.1418848 -0.23964691 C363.65392818 -0.57842241 447.75011754 34.03210127 512.96138859 98.13142776 C521.51796341 106.7400664 529.3527817 115.78946054 536.68209171 125.45808792 C537.92808998 127.08787268 539.19741708 128.69590838 540.47701359 130.29939651 C550.62454653 143.08477079 559.13432454 156.90344679 566.92037296 171.23006058 C567.91070299 173.03885285 568.92463757 174.83207707 569.94576359 176.62361526 C609.92889639 247.74246437 617.06450872 337.81541672 595.71138859 415.75642776 C582.38293034 462.36411824 558.71734247 504.99449046 526.07857609 540.79549026 C524.17058656 542.90061524 522.31091789 545.0375641 520.46138859 547.19392776 C514.16000422 554.41214173 507.24970004 560.92753636 499.96138859 567.13142776 C499.05131046 567.93064651 498.14123234 568.72986526 497.20357609 569.55330276 C482.90495682 582.02065101 467.36920346 592.64461848 450.96138859 602.13142776 C450.13187687 602.61466507 449.30236515 603.09790237 448.44771671 603.59578323 C403.8535971 629.37413718 352.0993502 644.28652686 300.46169376 644.27859879 C299.15443199 644.28227547 297.84717021 644.28595216 296.50029445 644.28974026 C292.9057479 644.29965308 289.31121804 644.30345942 285.71665978 644.30612957 C281.82710372 644.31006415 277.93756049 644.31963911 274.04801273 644.32834244 C264.67952785 644.34800491 255.31104204 644.35815397 245.94254172 644.36707023 C241.52446367 644.37146459 237.10638679 644.3768279 232.68830967 644.3820591 C217.99654356 644.39905108 203.30477815 644.41354862 188.61300373 644.42080784 C184.81002393 644.42271748 181.00704414 644.42463787 177.20406437 644.42659378 C176.25894276 644.42707752 175.31382115 644.42756126 174.34005949 644.42805966 C159.00435569 644.43637343 143.66872954 644.46174207 128.3330597 644.49417446 C112.57122665 644.52723575 96.80943313 644.54525522 81.04756522 644.54845208 C72.20430939 644.55061659 63.36116727 644.55935829 54.51794529 644.58491325 C46.99428491 644.6066064 39.47076595 644.614677 31.94707784 644.60494647 C28.11003786 644.60039953 24.2732898 644.60231121 20.43628979 644.62170792 C16.27503702 644.6425625 12.11443279 644.63236311 7.95314884 644.61917496 C6.7434245 644.6301442 5.53370017 644.64111345 4.28731751 644.6524151 C-4.05361456 644.58849561 -9.21791425 643.25745272 -15.78861141 637.88142776 C-22.28287704 629.94399199 -22.62638893 623.30474863 -22.58792782 613.33089066 C-22.59663527 611.9453052 -22.60700597 610.55972937 -22.61890316 609.17416763 C-22.64556317 605.4302452 -22.64685433 601.68672801 -22.64177656 597.94272923 C-22.63962915 594.80914454 -22.64942405 591.67564051 -22.6589874 588.54207319 C-22.6811357 581.14577062 -22.68207604 573.74967124 -22.66995907 566.35335159 C-22.65787819 558.74024036 -22.68251305 551.12786826 -22.72509921 543.5148831 C-22.76039969 536.96172144 -22.77232338 530.40879434 -22.76582372 523.85554117 C-22.76220883 519.94892179 -22.76736037 516.0428299 -22.7952528 512.13629723 C-22.82051422 508.46116176 -22.81642696 504.78717387 -22.79043102 501.11205482 C-22.7834902 499.13262147 -22.80597954 497.1531522 -22.829566 495.1738472 C-22.7360716 487.20558054 -21.41095708 482.13335865 -16.03861141 476.13142776 C-13.83670712 474.10115433 -13.83670712 474.10115433 -11.71439266 472.77205276 C-10.87166805 472.22806839 -10.02894344 471.68408401 -9.16068172 471.12361526 C-8.23352352 470.54869339 -7.30636532 469.97377151 -6.35111141 469.38142776 C-4.22567259 468.01433893 -2.10214182 466.64428128 0.01998234 465.27205276 C0.61179295 464.89222244 1.20360355 464.51239212 1.81334782 464.12105179 C10.41458093 458.58683642 18.85862233 452.81502223 27.32824039 447.08247757 C33.65874457 442.79857397 39.99522086 438.52352253 46.33443546 434.25252151 C49.17953442 432.33563355 52.01981683 430.41211767 54.85396671 428.47908401 C55.93613468 427.74560745 57.01830265 427.01213089 58.13326359 426.25642776 C59.03657413 425.64025589 59.93988468 425.02408401 60.87056828 424.38924026 C62.96138859 423.13142776 62.96138859 423.13142776 64.96138859 423.13142776 C66.2685672 409.54507146 67.57268719 395.95842537 68.87290287 382.37140083 C69.47673997 376.06242308 70.0816303 369.75355001 70.68892765 363.44490433 C71.27495824 357.35677296 71.85822217 351.26838232 72.43956852 345.17980194 C72.66185326 342.85689851 72.88513487 340.53409024 73.10942936 338.21138 C73.42339881 334.9582503 73.73382296 331.70480033 74.04341984 328.45125198 C74.18368092 327.01086815 74.18368092 327.01086815 74.32677555 325.54138565 C74.75038567 321.05195494 75.07140988 316.64750923 74.96138859 312.13142776 C64.63595925 318.99595716 54.31896248 325.87220541 44.05123234 332.82283401 C43.2349033 333.37534836 42.41857426 333.9278627 41.57750797 334.4971199 C39.89141276 335.63839254 38.20532686 336.77967893 36.51924992 337.92097855 C19.837485 349.20794182 3.07651363 360.36605326 -13.7613287 371.41865921 C-29.88381246 382.00460652 -45.8935784 392.75082169 -61.84525204 403.59236526 C-76.22914515 413.35732564 -76.22914515 413.35732564 -83.37454891 417.90486526 C-84.33280575 418.51894241 -85.29106258 419.13301956 -86.27835751 419.76570511 C-91.10686481 422.15476135 -95.85386192 422.40024224 -101.03861141 421.13142776 C-108.62794107 417.93043412 -115.54418842 413.47345736 -122.47611141 409.06892776 C-124.58672117 407.73418589 -126.69739919 406.39955193 -128.80814266 405.06502151 C-130.3736285 404.07284622 -130.3736285 404.07284622 -131.97074032 403.06062698 C-134.83690582 401.25826825 -137.719483 399.48737686 -140.61283016 397.72908401 C-141.89685726 396.94126541 -141.89685726 396.94126541 -143.2068243 396.13753128 C-144.79036166 395.16676293 -146.37905854 394.2043369 -147.97391415 393.25227737 C-153.67244399 389.72834711 -158.86104709 385.66412074 -161.03861141 379.13142776 C-161.27689266 377.15095901 -161.27689266 377.15095901 -161.35111141 374.94392776 C-161.38849422 374.22849808 -161.42587704 373.51306839 -161.46439266 372.77595901 C-160.62180674 367.54265014 -158.23715518 362.7689601 -154.07865047 359.41414261 C-152.91691527 358.58003926 -151.74111591 357.7652839 -150.55423641 356.96736526 C-149.90271603 356.50993942 -149.25119564 356.05251358 -148.57993221 355.58122635 C-146.41469029 354.07428246 -144.23033755 352.59955553 -142.03861141 351.13142776 C-141.28040096 350.6209993 -140.52219051 350.11057083 -139.74100399 349.58467484 C-134.70515072 346.20596317 -129.63734909 342.87758073 -124.55841732 339.56407547 C-119.72617523 336.41042802 -114.90357258 333.24212394 -110.08158016 330.07283401 C-109.08964153 329.42098633 -108.0977029 328.76913864 -107.07570553 328.09753799 C-94.62716353 319.90408315 -82.28326805 311.55589518 -69.94193172 303.20222855 C-68.27756697 302.07572932 -66.61317922 300.94926408 -64.94876766 299.82283401 C-64.1344276 299.27159363 -63.32008755 298.72035324 -62.48107052 298.1524086 C-55.6388974 293.52587857 -48.76686009 288.94498126 -41.89057064 284.36937332 C-35.95401741 280.41613376 -30.0348391 276.43818292 -24.12845516 272.44002151 C-23.31010189 271.88614258 -22.49174862 271.33226364 -21.64859676 270.76160049 C-19.96372181 269.62115758 -18.27885664 268.48070021 -16.59400082 267.34022903 C-0.62588074 256.53597149 15.40973687 245.8415975 31.52388859 235.25642776 C45.10040558 226.33759505 58.63695697 217.36601035 72.08638859 208.25642776 C73.13102772 207.54924606 73.13102772 207.54924606 74.19677067 206.82777786 C76.16351637 205.49547101 78.12914005 204.16153035 80.09420109 202.82674026 C80.69584583 202.41868149 81.29749058 202.01062271 81.91736698 201.59019852 C86.34147937 198.57980929 90.69325219 195.47723389 95.00386906 192.30672073 C96.96138859 191.13142776 96.96138859 191.13142776 99.96138859 191.13142776 C98.82009875 203.84231236 97.67222526 216.55259796 96.5218668 229.26266479 C96.3155818 231.54243207 96.10940936 233.82220953 95.90335178 236.10199738 C92.62519963 272.37044115 89.26805663 308.63117038 85.86595821 344.88819438 C85.06971803 353.37398446 84.27456512 361.85987582 83.48006535 370.34582901 C83.25126157 372.78936053 83.02245602 375.23289188 82.79364872 377.67642307 C82.44903213 381.3567514 82.10442775 385.03708088 81.7598753 388.71741521 C80.37661142 403.49143952 78.98870051 418.26501242 77.59393084 433.03795505 C76.70115107 442.49769659 75.81341024 451.95790302 74.92932546 461.41846108 C74.41011062 466.97236662 73.88847765 472.52601939 73.36068439 478.07911682 C72.87004338 483.24158239 72.38593183 488.40461941 71.90671968 493.56815803 C71.73167237 495.44191956 71.55428692 497.31546455 71.37424994 499.18875325 C68.16975625 519.1875289 68.16975625 519.1875289 73.26216984 537.49324417 C76.62097846 540.73140594 80.42899331 543.01163523 84.46138859 545.31892776 C86.34584312 546.43944999 88.22994752 547.56056125 90.11373234 548.68220901 C91.07907902 549.24891312 92.0444257 549.81561722 93.03902531 550.39949417 C96.83914023 552.65162577 100.58582981 554.98420651 104.33174992 557.32503128 C107.77990859 559.47860603 111.24247813 561.60835922 114.70552921 563.73787308 C116.69938959 564.96957816 118.68300596 566.21594489 120.66451359 567.46736526 C128.28237948 572.20636554 128.28237948 572.20636554 136.96138859 573.13142776 C144.02353583 570.31963934 150.18231587 566.10374612 156.30123234 561.66658401 C163.1332767 556.80085627 170.01371934 552.03987162 177.02779484 547.44002151 C177.87149632 546.8865152 178.71519779 546.33300888 179.58446598 545.76272964 C181.32840252 544.62039967 183.07290778 543.47893749 184.81795597 542.33830643 C201.20170782 531.62515683 217.49509399 520.78372995 233.71138859 509.81892776 C234.62502171 509.20121506 235.53865482 508.58350235 236.47997379 507.94707108 C240.00591647 505.56291388 243.53179364 503.17866 247.05732059 500.79388809 C254.22821557 495.94546432 261.42767627 491.1415019 268.63912296 486.35359573 C274.91660181 482.17843887 281.16987398 477.96878436 287.41451359 473.74470901 C305.30173536 461.64780489 323.21560194 449.59975112 341.26058292 437.73897171 C348.38369703 433.05659116 355.5012899 428.36581215 362.61873722 423.67482376 C364.13195485 422.67787899 365.64552086 421.68146272 367.15950871 420.68568802 C371.4379444 417.8714943 375.70360078 415.03926713 379.96138859 412.19392776 C380.95154972 411.54456253 381.94171085 410.8951973 382.96187687 410.22615433 C388.53506979 406.47288284 392.54427785 403.42704468 394.71138859 396.85799026 C395.29297292 391.96904701 395.00663255 388.30692417 392.47310734 384.01424026 C386.76134953 376.90037136 377.04255683 372.7207639 369.29171085 368.121418 C361.01766831 363.20705955 352.87159556 358.0964131 344.74410343 352.94392776 C343.77295597 352.33162308 342.80180851 351.71931839 341.80123234 351.08845901 C340.93876896 350.54165482 340.07630558 349.99485062 339.18770695 349.43147659 C335.22445364 347.11715223 331.4589361 346.19643004 326.96138859 347.13142776 C316.56766934 352.0912184 307.06476477 359.33618585 297.56978703 365.79280472 C292.76412463 369.06050408 287.94994453 372.31562341 283.13716984 375.57283401 C282.17517673 376.2244249 281.21318363 376.87601578 280.22203922 377.54735184 C271.99576759 383.11671392 263.73584048 388.6340117 255.46138859 394.13142776 C243.68832935 401.95788765 231.95614436 409.8434724 220.24016666 417.75511551 C212.14993348 423.21787765 204.05629413 428.67559228 195.96138859 434.13142776 C194.68917454 434.98900681 194.68917454 434.98900681 193.39125919 435.86391068 C188.62312825 439.0770086 183.8516209 442.28497179 179.07466984 445.48494339 C177.63362935 446.45124253 176.19367149 447.41915833 174.75484562 448.38875198 C172.79402325 449.70968325 170.82945954 451.02484228 168.86373234 452.33845901 C168.0014024 452.92207954 168.0014024 452.92207954 167.12165165 453.51749039 C163.18991012 456.13142776 163.18991012 456.13142776 160.96138859 456.13142776 C160.77829009 448.27669723 161.35096946 440.58266027 162.1003046 432.76749039 C162.22444753 431.43727687 162.3481785 430.10702486 162.47153664 428.77673835 C162.80945555 425.14518666 163.15308635 421.51419529 163.49767828 417.88327157 C163.86918425 413.95774369 164.2352755 410.03171047 164.60198307 406.10573196 C165.23757769 399.30832741 165.87639268 392.51123182 166.51726627 385.71432304 C167.44524993 375.87105153 168.36677476 366.02718315 169.28648436 356.18313547 C170.78086317 340.18864396 172.27834584 324.19444494 173.7787714 308.20051956 C173.86848984 307.24414066 173.95820829 306.28776176 174.05064547 305.30240168 C175.05116011 294.63787454 176.05242645 283.97341819 177.05452824 273.30904007 C177.41769608 269.44409134 177.78085696 265.57914196 178.14400578 261.71419144 C178.23361564 260.76050015 178.32322551 259.80680886 178.41555083 258.82421783 C179.91217239 242.89451096 181.40338545 226.96430287 182.89039993 211.03369635 C183.8065895 201.22091621 184.72739708 191.40859108 185.65425181 181.59681245 C186.28963328 174.86696362 186.91999128 168.13665612 187.54648232 161.40597389 C187.90748552 157.52936601 188.27071207 153.65300163 188.64012623 149.77718544 C188.97922669 146.21898004 189.31174306 142.66021884 189.63935459 139.10093781 C189.81365561 137.22516853 189.99474501 135.35003372 190.17619514 133.47494251 C190.73534346 127.32797633 191.12956333 121.18254367 191.27842045 115.01235867 C191.33145879 113.18479496 191.33145879 113.18479496 191.38556862 111.32031077 C190.88161852 107.53173565 189.94751149 106.4151031 187.02779484 104.03767776 C185.36807882 103.01989989 183.67810611 102.04980132 181.96138859 101.13142776 C180.48996871 100.20651687 179.01988346 99.27947886 177.55123234 98.35017776 C176.00358097 97.438593 174.45265987 96.53254171 172.89888859 95.63142776 C163.81181985 90.27395055 154.85312982 84.72979947 145.92012882 79.11970901 C144.95534611 78.51384964 143.99056339 77.90799026 142.99654484 77.28377151 C142.14455509 76.74744095 141.29256535 76.21111038 140.41475773 75.65852737 C139.60514591 75.1545845 138.7955341 74.65064163 137.96138859 74.13142776 C137.19753849 73.57141068 136.43368839 73.01139359 135.64669132 72.43440628 C131.99224968 70.66117644 128.89178171 70.34612892 124.96138859 71.13142776 C121.75087086 72.56030217 118.95224821 74.46153403 116.06685734 76.45564651 C115.21875996 77.02026596 114.37066257 77.58488541 113.49686527 78.16661453 C110.70217697 80.03344969 107.92586395 81.92586629 105.14888859 83.81892776 C103.18447856 85.13849653 101.21896493 86.45642375 99.25240421 87.77278519 C94.14568475 91.19740708 89.0538814 94.6435428 83.96572208 98.09566116 C79.23884946 101.29863761 74.50028777 104.48418361 69.76216984 107.67049026 C62.62501486 112.47336587 55.49419259 117.28549519 48.36763859 122.10408401 C38.87856938 128.51805004 29.3772729 134.91351105 19.85591984 141.27946854 C18.27303261 142.33843187 16.69098561 143.39865235 15.10982609 144.46019363 C12.94798838 145.91125638 10.78326024 147.35789563 8.61763859 148.80330276 C7.98233219 149.23094421 7.34702579 149.65858566 6.69246769 150.09918594 C0.78589725 154.02689218 -4.02709711 155.04416927 -11.03861141 154.13142776 C-15.2447185 152.49415118 -18.08985131 150.54268918 -20.61807919 146.7820015 C-22.66328091 141.52611252 -22.4729015 136.63623823 -22.45853329 131.04256058 C-22.46700283 129.82879745 -22.47547237 128.61503433 -22.48419857 127.36449051 C-22.50355244 124.04591676 -22.5093481 120.72790611 -22.50745106 117.40931416 C-22.50733103 114.63133649 -22.51590881 111.8534109 -22.52422857 109.0754478 C-22.54344343 102.51529615 -22.54635429 95.95527172 -22.53958797 89.39509964 C-22.53295601 82.64780753 -22.55578123 75.90106331 -22.59290171 69.15388227 C-22.6236914 63.34470403 -22.63494854 57.53570115 -22.63106489 51.72644305 C-22.62900604 48.26413507 -22.63434044 44.80225311 -22.65895748 41.34002304 C-22.68554915 37.47242543 -22.67142621 33.60553347 -22.65384579 29.73787308 C-22.66710903 28.60505905 -22.68037228 27.47224503 -22.69403744 26.3051033 C-22.61596977 18.88572849 -21.16595879 13.35974916 -17.03861141 7.13142776 C-14.68704891 4.87752151 -14.68704891 4.87752151 -12.41361141 3.56892776 C-11.65822079 3.1138887 -10.90283016 2.65884964 -10.12454891 2.19002151 C-6.61428305 0.40859446 -3.87911161 0.00533014 0 0 Z M396.02779484 287.88142776 C386.27093469 298.5051545 382.13583241 311.10511143 382.57857609 325.42049026 C383.59630222 335.28620277 386.91396008 343.33802252 392.96138859 351.13142776 C394.07513859 352.67830276 394.07513859 352.67830276 395.21138859 354.25642776 C403.94360199 363.38555996 415.43248189 369.10971385 428.10176945 369.42537308 C443.26309308 369.544593 452.94551989 364.90767004 465.44576359 356.70174026 C469.5069228 354.04196698 473.62697676 351.4956633 477.78951359 348.99861526 C478.96841785 348.28805398 480.14729154 347.577442 481.32613468 346.86677933 C483.62568469 345.48136631 485.93118826 344.10799486 488.24117374 342.7398262 C495.23887852 338.5044013 501.76568619 334.51501873 503.96138859 326.13142776 C504.58464219 319.7950161 503.83757748 315.27252873 499.96138859 310.13142776 C491.91868097 303.37112601 482.64394851 297.77297094 473.89205265 291.97591019 C472.35494216 290.95458783 470.8213948 289.92788249 469.29146671 288.89583206 C445.35414536 272.75247387 419.46633705 265.74269737 396.02779484 287.88142776 Z " fill="#0091E4" transform="translate(161.03861141204834,-0.13142776489257813)"/>
<path d="M0 0 C3.96 0 7.92 0 12 0 C30 40.36893204 30 40.36893204 30 42 C26.37 42 22.74 42 19 42 C17.68 39.36 16.36 36.72 15 34 C8.73 33.67 2.46 33.34 -4 33 C-4.495 35.475 -4.495 35.475 -5 38 C-5.66 39.32 -6.32 40.64 -7 42 C-10.63 42 -14.26 42 -18 42 C-14.64204251 32.91475524 -10.8745644 24.13969934 -6.75 15.375 C-5.68093422 13.09178094 -4.61316131 10.80795593 -3.546875 8.5234375 C-3.08120117 7.53263184 -2.61552734 6.54182617 -2.13574219 5.52099609 C-0.92924305 2.95665544 -0.92924305 2.95665544 0 0 Z M5 12 C3.35 16.29 1.7 20.58 0 25 C3.96 25 7.92 25 12 25 C10.35 20.71 8.7 16.42 7 12 C6.34 12 5.68 12 5 12 Z " fill="#0091E4" transform="translate(579,299)"/>
<path d="M0 0 C3.3 0 6.6 0 10 0 C10 13.86 10 27.72 10 42 C6.7 42 3.4 42 0 42 C0 28.14 0 14.28 0 0 Z " fill="#0091E4" transform="translate(613,299)"/>
</svg>
