<?xml version="1.0" encoding="UTF-8"?>
<svg version="1.1" xmlns="http://www.w3.org/2000/svg" width="720" height="94">
<path d="M0 0 C7.32816549 -0.10213068 14.65614477 -0.17177002 21.98486328 -0.21972656 C24.47353982 -0.23973667 26.96216998 -0.26695343 29.45068359 -0.30175781 C33.04536444 -0.35074344 36.63941913 -0.37307583 40.234375 -0.390625 C41.88043732 -0.42159271 41.88043732 -0.42159271 43.55975342 -0.45318604 C56.80126194 -0.45695948 68.4065667 4.15669789 78.25390625 13.03125 C89.39647649 24.70240517 92.71947048 38.32931453 92.375 53.96484375 C91.63571931 68.07190342 83.69574177 77.8127857 73.796875 87.078125 C64.61001805 93.39088145 56.59473308 94.71074122 45.58203125 94.48828125 C44.23013125 94.47892997 42.87821405 94.47182484 41.52629089 94.46684265 C38.00616833 94.44795379 34.48711408 94.39901749 30.96740723 94.34332275 C27.36057987 94.29173243 23.7535761 94.26924473 20.14648438 94.24414062 C13.0972251 94.19087468 6.04868311 94.10578998 -1 94 C-1.26319835 90.31387336 -1.42176303 86.63017002 -1.5625 82.9375 C-1.63791016 81.89916016 -1.71332031 80.86082031 -1.79101562 79.79101562 C-2.0089024 72.16497851 -2.0089024 72.16497851 0.93798828 68.76220703 C3.21897278 66.97948014 5.50091483 65.45677915 8 64 C8.99 63.34 9.98 62.68 11 62 C11.58687784 58.65386488 11.58687784 58.65386488 11.6875 54.875 C11.75324219 53.59367187 11.81898437 52.31234375 11.88671875 50.9921875 C11.92410156 50.00476562 11.96148437 49.01734375 12 48 C10.91460937 48.74765625 9.82921875 49.4953125 8.7109375 50.265625 C7.2656408 51.26043961 5.82032741 52.25523 4.375 53.25 C3.30572266 53.98669922 3.30572266 53.98669922 2.21484375 54.73828125 C0.80634386 55.70743255 -0.60419406 56.67362918 -2.0168457 57.63671875 C-3.2727146 58.50004165 -4.51994098 59.37619217 -5.75463867 60.26953125 C-9.67182796 63.05357911 -9.67182796 63.05357911 -13.0625 62.5 C-16.07292908 60.96275962 -18.46966248 59.23265075 -21 57 C-20.99389648 54.85864258 -20.99389648 54.85864258 -20 52 C-17.59605973 49.75034298 -14.86081563 48.0390818 -12.09765625 46.26171875 C-11.30475693 45.73608841 -10.5118576 45.21045807 -9.69493103 44.66889954 C-8.01909906 43.56186737 -6.33849986 42.46202304 -4.65356445 41.36889648 C-2.0666416 39.69018757 0.50568438 37.99085317 3.07617188 36.28710938 C4.70492178 35.21491833 6.33445322 34.14391337 7.96484375 33.07421875 C8.73884018 32.56493332 9.51283661 32.05564789 10.31028748 31.53092957 C11.02765579 31.06656998 11.74502411 30.60221039 12.48413086 30.1237793 C13.11620956 29.7125029 13.74828827 29.3012265 14.39952087 28.87748718 C16 28 16 28 18 28 C16.76866132 45.00910275 15.45394902 62.00843185 14 79 C15.051875 79.680625 16.10375 80.36125 17.1875 81.0625 C17.77917969 81.44535156 18.37085938 81.82820313 18.98046875 82.22265625 C21.79023763 83.30417271 23.14272746 82.9426405 26 82 C28.22228749 80.68959393 30.29697928 79.36198052 32.40234375 77.88671875 C33.00252823 77.47589554 33.60271271 77.06507233 34.22108459 76.64179993 C36.13194544 75.33133969 38.03477644 74.0097398 39.9375 72.6875 C41.21236605 71.80978445 42.48775199 70.93282353 43.76367188 70.05664062 C46.1217038 68.43658844 48.47617259 66.81158729 50.82788086 65.18237305 C52.45035997 64.06613039 54.07561133 62.95222671 55.74050903 61.90029907 C57.19130794 60.980659 58.60017112 59.99550713 60 59 C60 58.34 60 57.68 60 57 C58.948125 56.319375 57.89625 55.63875 56.8125 54.9375 C56.22082031 54.55464844 55.62914063 54.17179687 55.01953125 53.77734375 C52.27254724 52.719994 50.82526558 53.21615873 48 54 C45.45976811 55.38521534 45.45976811 55.38521534 42.953125 57.16015625 C41.56287109 58.1027832 41.56287109 58.1027832 40.14453125 59.06445312 C39.18933594 59.72380859 38.23414063 60.38316406 37.25 61.0625 C35.33977559 62.36769317 33.42838271 63.67117845 31.515625 64.97265625 C30.67290039 65.55281494 29.83017578 66.13297363 28.96191406 66.73071289 C27 68 27 68 26 68 C26.65749169 50.61047834 28.35242008 33.31741344 30 16 C28.39125 14.9790625 28.39125 14.9790625 26.75 13.9375 C26.14671875 13.55464844 25.5434375 13.17179688 24.921875 12.77734375 C22.4683762 11.7849733 21.44505171 12.0559158 19 13 C17.21416044 14.03154628 17.21416044 14.03154628 15.50390625 15.3203125 C14.86259766 15.77277344 14.22128906 16.22523437 13.56054688 16.69140625 C12.22737548 17.64795347 10.89922264 18.61153384 9.57617188 19.58203125 C4.63451129 23.04168931 4.63451129 23.04168931 1.02734375 22.8046875 C0.35832031 22.53914063 -0.31070312 22.27359375 -1 22 C-1.02895225 18.70835171 -1.0467823 15.41673601 -1.0625 12.125 C-1.07087891 11.18785156 -1.07925781 10.25070312 -1.08789062 9.28515625 C-1.09272461 7.94130859 -1.09272461 7.94130859 -1.09765625 6.5703125 C-1.10551147 5.32918701 -1.10551147 5.32918701 -1.11352539 4.06298828 C-1 2 -1 2 0 0 Z M61.125 42.0625 C59.33764697 45.14071911 59.56613258 47.52906068 60 51 C61.44148975 53.18547684 61.44148975 53.18547684 64 54 C69.31523533 53.90335936 72.14960591 52.61703688 76 49 C75.95231597 47.12119128 75.95231597 47.12119128 75 45 C71.91517274 42.41735392 69.8186858 41.11236864 65.8125 40.5625 C63.05780972 40.82133049 63.05780972 40.82133049 61.125 42.0625 Z " fill="#FFFFFF" transform="translate(25,0)"/>
<path d="M0 0 C13.01316809 -1.52498064 13.01316809 -1.52498064 17.671875 2.05078125 C19.69581855 4.61875474 21.3894249 7.15658778 23 10 C24.87221731 13.65028547 24.87221731 13.65028547 28 16 C28.26341187 15.29349808 28.52682373 14.58699615 28.79821777 13.85908508 C31.05339297 8.49393854 33.64820471 3.93252324 38 0 C42.81007323 -1.48860547 47.34688753 -1.28997357 52.34375 -1.07421875 C53.72230788 -1.05366758 55.10094686 -1.03802588 56.47961426 -1.02705383 C60.08543976 -0.98531334 63.68628608 -0.8775347 67.29016113 -0.75531006 C70.97660957 -0.64218946 74.66387389 -0.59242085 78.3515625 -0.53710938 C85.56996372 -0.41960361 92.78428091 -0.23222927 100 0 C100 3.3 100 6.6 100 10 C94.39 10 88.78 10 83 10 C83 24.52 83 39.04 83 54 C78.38 54 73.76 54 69 54 C69 39.48 69 24.96 69 10 C63.39 10 57.78 10 52 10 C51.505 7.03 51.505 7.03 51 4 C48.67317885 7.05185486 46.36618723 10.11815579 44.0625 13.1875 C43.40314453 14.05181641 42.74378906 14.91613281 42.06445312 15.80664062 C41.43603516 16.64775391 40.80761719 17.48886719 40.16015625 18.35546875 C39.57886963 19.12528076 38.99758301 19.89509277 38.39868164 20.68823242 C36.8684177 23.21748173 36.23311892 25.05717406 36 28 C37.39884476 30.25084092 38.73425339 32.06942919 40.4375 34.0625 C41.36389516 35.20181795 42.28701023 36.34380988 43.20703125 37.48828125 C43.67447754 38.06658691 44.14192383 38.64489258 44.62353516 39.24072266 C54 51.22490245 54 51.22490245 54 54 C43.03859897 55.43668848 43.03859897 55.43668848 38 54 C35.03613715 51.22459086 33.43576748 48.60938195 31.578125 45.015625 C30.03205785 42.06125906 28.46626296 40.20891378 26 38 C24.72651788 39.72721684 23.45632943 41.45686238 22.1875 43.1875 C21.47980469 44.15042969 20.77210938 45.11335938 20.04296875 46.10546875 C17.93906938 48.88241709 17.93906938 48.88241709 16.75 51.84375 C15 54 15 54 11.20703125 54.48828125 C9.74139115 54.45512197 8.27615861 54.39558979 6.8125 54.3125 C6.06291016 54.28994141 5.31332031 54.26738281 4.54101562 54.24414062 C2.6931553 54.18529157 0.84632333 54.09560938 -1 54 C2.72726781 47.03490358 7.42879703 40.93883483 12.21875 34.67578125 C12.83234375 33.85980469 13.4459375 33.04382812 14.078125 32.203125 C14.91972168 31.09952637 14.91972168 31.09952637 15.77832031 29.97363281 C17.26316282 27.96171645 17.26316282 27.96171645 17 25 C15.86399834 23.03584869 15.86399834 23.03584869 14.296875 21.015625 C13.72839844 20.24476562 13.15992188 19.47390625 12.57421875 18.6796875 C11.97222656 17.87789062 11.37023437 17.07609375 10.75 16.25 C6.81719689 10.97745078 3.12894875 5.79320214 0 0 Z " fill="#FFFFFF" transform="translate(516,20)"/>
<path d="M0 0 C12 0 12 0 15.296875 2.4921875 C16.15244927 3.59133751 16.96984552 4.72109486 17.75 5.875 C18.19553223 6.46418213 18.64106445 7.05336426 19.10009766 7.66040039 C20.00075994 8.85465854 20.88670136 10.0601752 21.75683594 11.27685547 C23.53480574 13.74129201 25.45522929 16.08272507 27.375 18.4375 C27.96023438 19.17871094 28.54546875 19.91992188 29.1484375 20.68359375 C31.39103671 23.48920837 33.70061264 26.24073517 36 29 C36.33 19.43 36.66 9.86 37 0 C41.29 0 45.58 0 50 0 C50 17.82 50 35.64 50 54 C39 54 39 54 36.34375 52.3046875 C35.43109375 51.10199219 35.43109375 51.10199219 34.5 49.875 C33.42492187 48.51761719 33.42492187 48.51761719 32.328125 47.1328125 C31.55984375 46.09898438 30.7915625 45.06515625 30 44 C29.06150014 42.80657429 28.11860055 41.61659847 27.171875 40.4296875 C24.89950203 37.57564137 22.65642036 34.70114522 20.43457031 31.80761719 C18.33808342 29.16595808 16.15900897 26.59081076 14 24 C13.67 33.9 13.34 43.8 13 54 C8.71 54 4.42 54 0 54 C0 36.18 0 18.36 0 0 Z " fill="#FFFFFF" transform="translate(407,20)"/>
<path d="M0 0 C5.40375 -0.0825 10.8075 -0.165 16.375 -0.25 C18.05899902 -0.28641602 19.74299805 -0.32283203 21.47802734 -0.36035156 C31.00139779 -0.48177521 38.60992897 0.17634306 46.62109375 5.859375 C53.11592886 12.61959047 55.10463767 17.54674773 55.4375 26.9375 C55.22785981 35.11346746 53.3223644 40.70836117 47.875 46.8125 C38.52903875 55.06240113 28.11665512 54.50391006 16.375 54.25 C8.269375 54.12625 8.269375 54.12625 0 54 C0 36.18 0 18.36 0 0 Z M13 11 C13 21.56 13 32.12 13 43 C15.68125 43.061875 18.3625 43.12375 21.125 43.1875 C22.37434326 43.22846802 22.37434326 43.22846802 23.64892578 43.27026367 C30.03055586 43.34106916 34.01339295 41.81001976 38.8125 37.4375 C41.90963056 33.40822336 42.25980588 28.95993048 42 24 C40.35395187 18.09359202 37.80402955 15.47525542 33 12 C30.703463 10.8517315 29.41686833 10.88438825 26.8671875 10.90234375 C26.14128418 10.90484131 25.41538086 10.90733887 24.66748047 10.90991211 C23.74596191 10.91901611 22.82444336 10.92812012 21.875 10.9375 C17.481875 10.9684375 17.481875 10.9684375 13 11 Z " fill="#FFFFFF" transform="translate(161,20)"/>
<path d="M0 0 C13.86 0 27.72 0 42 0 C42 3.3 42 6.6 42 10 C32.43 10 22.86 10 13 10 C13 13.63 13 17.26 13 21 C21.25 21 29.5 21 38 21 C38 24.63 38 28.26 38 32 C29.75 32 21.5 32 13 32 C13 35.96 13 39.92 13 44 C22.9 44 32.8 44 43 44 C43 47.3 43 50.6 43 54 C28.81 54 14.62 54 0 54 C0 36.18 0 18.36 0 0 Z " fill="#FFFFFF" transform="translate(470,20)"/>
<path d="M0 0 C3.2578125 -0.29296875 3.2578125 -0.29296875 7.125 -0.1875 C9.04699219 -0.14689453 9.04699219 -0.14689453 11.0078125 -0.10546875 C11.99523437 -0.07066406 12.98265625 -0.03585938 14 0 C16.15110596 4.83370258 18.30154166 9.66770264 20.45141602 14.50195312 C21.179432 16.13874933 21.90761593 17.77547085 22.63598633 19.41210938 C24.74876959 24.15967479 26.85773134 28.90890765 28.96221924 33.66015625 C29.65782498 35.22851136 30.35490338 36.79621408 31.05340576 38.36328125 C32.04807381 40.59488198 33.03818612 42.82845246 34.02734375 45.0625 C34.32862686 45.73547119 34.62990997 46.40844238 34.94032288 47.10180664 C37 51.77220099 37 51.77220099 37 54 C32.38 54 27.76 54 23 54 C19 45.25 19 45.25 19 43 C10.75 43 2.5 43 -6 43 C-6.99 45.97 -7.98 48.94 -9 52 C-9.33 52.66 -9.66 53.32 -10 54 C-14.62 54 -19.24 54 -24 54 C-22.74818335 50.24455006 -21.55583531 46.81203033 -19.96875 43.2355957 C-19.57494141 42.34479813 -19.18113281 41.45400055 -18.77539062 40.53620911 C-18.35451172 39.59226791 -17.93363281 38.64832672 -17.5 37.67578125 C-17.06365234 36.69256393 -16.62730469 35.70934662 -16.17773438 34.69633484 C-15.25787911 32.62564267 -14.3366262 30.55557088 -13.4140625 28.48608398 C-12.00103586 25.31482478 -10.59398407 22.14096229 -9.1875 18.96679688 C-8.29202376 16.95296618 -7.3962023 14.93928894 -6.5 12.92578125 C-6.07912109 11.97576736 -5.65824219 11.02575348 -5.22460938 10.04695129 C-4.83080078 9.1656102 -4.43699219 8.2842691 -4.03125 7.3762207 C-3.68642578 6.6015596 -3.34160156 5.8268985 -2.98632812 5.02876282 C-2 3 -2 3 0 0 Z M6 14 C4.8265684 16.60130627 3.66107492 19.20568508 2.5 21.8125 C2.16613281 22.55048828 1.83226562 23.28847656 1.48828125 24.04882812 C1.01455078 25.11713867 1.01455078 25.11713867 0.53125 26.20703125 C0.23798828 26.8616333 -0.05527344 27.51623535 -0.35742188 28.19067383 C-1.16733424 30.15116068 -1.16733424 30.15116068 -1 33 C3.95 33 8.9 33 14 33 C13.10656817 28.53284086 11.76463639 24.80385599 9.9375 20.6875 C9.65583984 20.04232422 9.37417969 19.39714844 9.08398438 18.73242188 C8.3937257 17.15301642 7.69746802 15.57623507 7 14 C6.67 14 6.34 14 6 14 Z " fill="#FFFFFF" transform="translate(661,20)"/>
<path d="M0 0 C3.2578125 -0.29296875 3.2578125 -0.29296875 7.125 -0.1875 C9.04699219 -0.14689453 9.04699219 -0.14689453 11.0078125 -0.10546875 C11.99523437 -0.07066406 12.98265625 -0.03585938 14 0 C16.15110596 4.83370258 18.30154166 9.66770264 20.45141602 14.50195312 C21.179432 16.13874933 21.90761593 17.77547085 22.63598633 19.41210938 C24.74876959 24.15967479 26.85773134 28.90890765 28.96221924 33.66015625 C29.65782498 35.22851136 30.35490338 36.79621408 31.05340576 38.36328125 C32.04807381 40.59488198 33.03818612 42.82845246 34.02734375 45.0625 C34.32862686 45.73547119 34.62990997 46.40844238 34.94032288 47.10180664 C37 51.77220099 37 51.77220099 37 54 C32.38 54 27.76 54 23 54 C19 45.25 19 45.25 19 43 C10.75 43 2.5 43 -6 43 C-6.99 45.97 -7.98 48.94 -9 52 C-9.33 52.66 -9.66 53.32 -10 54 C-14.62 54 -19.24 54 -24 54 C-22.74818335 50.24455006 -21.55583531 46.81203033 -19.96875 43.2355957 C-19.57494141 42.34479813 -19.18113281 41.45400055 -18.77539062 40.53620911 C-18.35451172 39.59226791 -17.93363281 38.64832672 -17.5 37.67578125 C-17.06365234 36.69256393 -16.62730469 35.70934662 -16.17773438 34.69633484 C-15.25787911 32.62564267 -14.3366262 30.55557088 -13.4140625 28.48608398 C-12.00103586 25.31482478 -10.59398407 22.14096229 -9.1875 18.96679688 C-8.29202376 16.95296618 -7.3962023 14.93928894 -6.5 12.92578125 C-6.07912109 11.97576736 -5.65824219 11.02575348 -5.22460938 10.04695129 C-4.83080078 9.1656102 -4.43699219 8.2842691 -4.03125 7.3762207 C-3.68642578 6.6015596 -3.34160156 5.8268985 -2.98632812 5.02876282 C-2 3 -2 3 0 0 Z M6 14 C4.8265684 16.60130627 3.66107492 19.20568508 2.5 21.8125 C2.16613281 22.55048828 1.83226562 23.28847656 1.48828125 24.04882812 C1.01455078 25.11713867 1.01455078 25.11713867 0.53125 26.20703125 C0.23798828 26.8616333 -0.05527344 27.51623535 -0.35742188 28.19067383 C-1.16733424 30.15116068 -1.16733424 30.15116068 -1 33 C3.95 33 8.9 33 14 33 C13.10656817 28.53284086 11.76463639 24.80385599 9.9375 20.6875 C9.65583984 20.04232422 9.37417969 19.39714844 9.08398438 18.73242188 C8.3937257 17.15301642 7.69746802 15.57623507 7 14 C6.67 14 6.34 14 6 14 Z " fill="#FFFFFF" transform="translate(343,20)"/>
<path d="M0 0 C3.2578125 -0.29296875 3.2578125 -0.29296875 7.125 -0.1875 C9.04699219 -0.14689453 9.04699219 -0.14689453 11.0078125 -0.10546875 C11.99523437 -0.07066406 12.98265625 -0.03585938 14 0 C16.15110596 4.83370258 18.30154166 9.66770264 20.45141602 14.50195312 C21.179432 16.13874933 21.90761593 17.77547085 22.63598633 19.41210938 C24.74876959 24.15967479 26.85773134 28.90890765 28.96221924 33.66015625 C29.65782498 35.22851136 30.35490338 36.79621408 31.05340576 38.36328125 C32.04807381 40.59488198 33.03818612 42.82845246 34.02734375 45.0625 C34.32862686 45.73547119 34.62990997 46.40844238 34.94032288 47.10180664 C37 51.77220099 37 51.77220099 37 54 C32.38 54 27.76 54 23 54 C19 45.25 19 45.25 19 43 C10.75 43 2.5 43 -6 43 C-6.99 45.97 -7.98 48.94 -9 52 C-9.33 52.66 -9.66 53.32 -10 54 C-14.62 54 -19.24 54 -24 54 C-22.74818335 50.24455006 -21.55583531 46.81203033 -19.96875 43.2355957 C-19.57494141 42.34479813 -19.18113281 41.45400055 -18.77539062 40.53620911 C-18.35451172 39.59226791 -17.93363281 38.64832672 -17.5 37.67578125 C-17.06365234 36.69256393 -16.62730469 35.70934662 -16.17773438 34.69633484 C-15.25787911 32.62564267 -14.3366262 30.55557088 -13.4140625 28.48608398 C-12.00103586 25.31482478 -10.59398407 22.14096229 -9.1875 18.96679688 C-8.29202376 16.95296618 -7.3962023 14.93928894 -6.5 12.92578125 C-6.07912109 11.97576736 -5.65824219 11.02575348 -5.22460938 10.04695129 C-4.83080078 9.1656102 -4.43699219 8.2842691 -4.03125 7.3762207 C-3.68642578 6.6015596 -3.34160156 5.8268985 -2.98632812 5.02876282 C-2 3 -2 3 0 0 Z M6 14 C4.8265684 16.60130627 3.66107492 19.20568508 2.5 21.8125 C2.16613281 22.55048828 1.83226562 23.28847656 1.48828125 24.04882812 C1.01455078 25.11713867 1.01455078 25.11713867 0.53125 26.20703125 C0.23798828 26.8616333 -0.05527344 27.51623535 -0.35742188 28.19067383 C-1.16733424 30.15116068 -1.16733424 30.15116068 -1 33 C3.95 33 8.9 33 14 33 C13.10656817 28.53284086 11.76463639 24.80385599 9.9375 20.6875 C9.65583984 20.04232422 9.37417969 19.39714844 9.08398438 18.73242188 C8.3937257 17.15301642 7.69746802 15.57623507 7 14 C6.67 14 6.34 14 6 14 Z " fill="#FFFFFF" transform="translate(242,20)"/>
<path d="M0 0 C15.84 0 31.68 0 48 0 C48 3.3 48 6.6 48 10 C42.39 10 36.78 10 31 10 C31 24.52 31 39.04 31 54 C26.38 54 21.76 54 17 54 C17 39.48 17 24.96 17 10 C11.39 10 5.78 10 0 10 C0 6.7 0 3.4 0 0 Z " fill="#FFFFFF" transform="translate(275,20)"/>
<path d="M0 0 C4.29 0 8.58 0 13 0 C13 17.82 13 35.64 13 54 C8.71 54 4.42 54 0 54 C0 36.18 0 18.36 0 0 Z " fill="#FFFFFF" transform="translate(703,20)"/>
<path d="M0 0 C0.99 0 1.98 0 3 0 C3.33 0.99 3.66 1.98 4 3 C4.33 2.01 4.66 1.02 5 0 C5.66 0 6.32 0 7 0 C7 2.31 7 4.62 7 7 C3.7 7 0.4 7 -3 7 C-1.125 1.125 -1.125 1.125 0 0 Z " fill="#FFFFFF" transform="translate(89,44)"/>
</svg>
